<?xml version="1.0" encoding="UTF-8"?>
<svg width="120px" height="120px" viewBox="0 0 120 120" version="1.1" xmlns="http://www.w3.org/2000/svg" xmlns:xlink="http://www.w3.org/1999/xlink">
    <!-- Generator: Sketch 51.1 (57501) - http://www.bohemiancoding.com/sketch -->
    <title>check</title>
    <desc>Created with Sketch.</desc>
    <defs></defs>
    <g id="UI" stroke="none" stroke-width="1" fill="none" fill-rule="evenodd">
        <g id="完了（店）" transform="translate(-127.000000, -239.000000)" fill="#20E1B5" fill-rule="nonzero">
            <g id="check" transform="translate(127.000000, 239.000000)">
                <path d="M60,0 C26.9139844,0 0,26.9139844 0,60 C0,93.0860156 26.9139844,120 60,120 C93.0860156,120 120,93.0813281 120,60 C120,26.9186719 93.0860156,0 60,0 Z M60,110.704922 C32.0449219,110.704922 9.29507812,87.9597656 9.29507812,60 C9.29507812,32.0402344 32.0449219,9.29507813 60,9.29507813 C87.9597656,9.29507813 110.704922,32.0402344 110.704922,60 C110.704922,87.9597656 87.9550781,110.704922 60,110.704922 Z" id="Shape"></path>
                <path d="M87.5275781,39.1324219 C85.6359375,37.4128125 82.6940625,37.5475781 80.9653125,39.4483594 L52.6150781,70.6661719 L38.9186719,56.7421875 C37.1107031,54.9110156 34.1735156,54.883125 32.3470313,56.6864063 C30.5158594,58.485 30.4879688,61.426875 32.29125,63.2580469 L49.4360156,80.6864063 C50.3144531,81.5786719 51.5041406,82.0760156 52.7496094,82.0760156 C52.7775,82.0760156 52.8100781,82.0760156 52.8379688,82.0807031 C54.1207031,82.0528125 55.3291406,81.504375 56.1888281,80.5563281 L87.8432812,45.6996094 C89.5678125,43.7939063 89.4283594,40.8567187 87.5275781,39.1324219 Z" id="Shape"></path>
            </g>
        </g>
    </g>
</svg>