<?xml version="1.0" encoding="UTF-8"?>
<svg width="20px" height="20px" viewBox="0 0 20 20" version="1.1" xmlns="http://www.w3.org/2000/svg" xmlns:xlink="http://www.w3.org/1999/xlink">
    <!-- Generator: Sketch 51.1 (57501) - http://www.bohemiancoding.com/sketch -->
    <title>Shape</title>
    <desc>Created with Sketch.</desc>
    <defs></defs>
    <g id="UI-ver02" stroke="none" stroke-width="1" fill="none" fill-rule="evenodd">
        <g id="Artboard-2" transform="translate(-81.000000, -135.000000)" fill="#FFFFFF" fill-rule="nonzero">
            <path d="M93.375939,144.999202 L100.50608,137.869061 C101.162418,137.212723 101.162418,136.148592 100.50608,135.492347 C99.8497418,134.836009 98.7857042,134.836009 98.1293662,135.492347 L90.9991315,142.622582 L83.8688967,135.492254 C83.2125587,134.835915 82.1485211,134.835915 81.4921831,135.492254 C80.835939,136.148592 80.835939,137.212723 81.4921831,137.868967 L88.6224178,144.999108 L81.4921831,152.129343 C80.835939,152.785681 80.835939,153.849812 81.4921831,154.506056 C82.1485211,155.162394 83.2125587,155.162394 83.8688967,154.506056 L90.9991315,147.375822 L98.1293662,154.506056 C98.7856103,155.162394 99.8497418,155.162394 100.50608,154.506056 C101.162418,153.849718 101.162418,152.785681 100.50608,152.129343 L93.375939,144.999202 Z" id="Shape"></path>
        </g>
    </g>
</svg>