<?xml version="1.0" encoding="UTF-8"?>
<svg width="189px" height="44px" viewBox="0 0 189 44" version="1.1" xmlns="http://www.w3.org/2000/svg" xmlns:xlink="http://www.w3.org/1999/xlink">
    <!-- Generator: Sketch 51.1 (57501) - http://www.bohemiancoding.com/sketch -->
    <title>Group 2</title>
    <desc>Created with Sketch.</desc>
    <defs>
        <polygon id="path-1" points="0.38244747 24.7391001 5.92360701 0.178082177 13.531707 0.178082177 19.9084382 14.5225422 23.16277 0.178082177 30.7268926 0.178082177 25.185733 24.7391001 17.577633 24.7391001 11.2009018 10.39464 7.94657001 24.7391001"></polygon>
        <filter x="-52.7%" y="-57.0%" width="205.5%" height="230.3%" filterUnits="objectBoundingBox" id="filter-2">
            <feOffset dx="0" dy="2" in="SourceAlpha" result="shadowOffsetOuter1"></feOffset>
            <feGaussianBlur stdDeviation="5" in="shadowOffsetOuter1" result="shadowBlurOuter1"></feGaussianBlur>
            <feColorMatrix values="0 0 0 0 0   0 0 0 0 0   0 0 0 0 0  0 0 0 0.08 0" type="matrix" in="shadowBlurOuter1"></feColorMatrix>
        </filter>
        <linearGradient x1="0%" y1="50%" x2="100%" y2="50%" id="linearGradient-3">
            <stop stop-color="#28BBCF" offset="0%"></stop>
            <stop stop-color="#82719F" offset="50.8399566%"></stop>
            <stop stop-color="#E52069" offset="100%"></stop>
        </linearGradient>
        <path d="M54.9721019,23.2584044 L58.2276072,4.81054142 L62.6974675,4.81054142 L66.4438823,15.5847135 L68.3558457,4.81054142 L72.7998687,4.81054142 L69.5443635,23.2584044 L65.0745031,23.2584044 L61.3280883,12.4842323 L59.416125,23.2584044 L54.9721019,23.2584044 Z M75.5903018,8.42776946 L76.2620727,4.57800533 L80.6027463,4.57800533 L79.9309754,8.42776946 L75.5903018,8.42776946 Z M72.9807301,23.2584044 L75.3577657,9.71963662 L79.6984393,9.71963662 L77.3214038,23.2584044 L72.9807301,23.2584044 Z M87.7338531,23.1808924 L87.7596904,23.000031 C87.1137568,23.3875912 86.4419859,23.5684526 85.5118415,23.5684526 C82.385523,23.5684526 80.9386318,22.2765854 80.9386318,19.5119897 C80.9386318,18.8143814 81.0161438,18.0392611 81.2228426,16.9282554 L81.558728,15.016292 C81.9204508,12.9234672 82.3338483,11.8382988 83.1089686,10.9598291 C84.0649503,9.87466068 85.2793055,9.4095885 87.1654315,9.4095885 C88.7673468,9.4095885 89.8266779,9.69379928 90.5759608,10.3397329 L91.118545,9.71963662 L94.4515623,9.71963662 L92.1778761,22.5607962 C91.7386412,25.0928558 91.2218944,26.3588856 90.1625633,27.4698914 C88.9740455,28.7359212 87.2687809,29.3818548 85.0726067,29.3818548 C82.1271496,29.3818548 80.3443729,28.3741984 79.7242767,26.3588856 L83.2381553,24.6019463 C83.5998782,25.6612773 84.0907877,26.0488375 85.0984441,26.0488375 C86.5453353,26.0488375 87.3721303,25.1703678 87.7338531,23.1808924 Z M85.7185403,15.8689243 L85.4860042,17.1091168 C85.4084922,17.6000263 85.3568175,18.1167731 85.3568175,18.556008 C85.3568175,19.6670137 85.7443776,20.1320859 86.6228473,20.1320859 C87.7855277,20.1320859 88.3797866,19.5119897 88.6381601,18.0650985 L89.1807443,14.9129426 C89.232419,14.6804065 89.2582563,14.3961957 89.2582563,14.1636596 C89.2582563,13.2593526 88.8190215,12.8459551 87.9147145,12.8459551 C86.7261967,12.8459551 86.1061004,13.6985875 85.7185403,15.8689243 Z M95.2783573,23.2584044 L98.5338625,4.81054142 L102.874536,4.81054142 L101.944392,10.0296847 C102.771187,9.56461256 103.41712,9.4095885 104.373102,9.4095885 C107.11186,9.4095885 108.713776,10.7789677 108.713776,13.0784912 C108.713776,13.7760995 108.584589,14.8612679 108.37789,16.0497857 L107.11186,23.2584044 L102.771187,23.2584044 L104.088891,15.8172496 C104.140566,15.4813641 104.192241,14.9129426 104.192241,14.5512198 C104.192241,13.5952381 103.804681,13.1301659 103.003723,13.1301659 C101.892717,13.1301659 101.246784,13.9569609 100.910898,15.8689243 L99.6190309,23.2584044 L95.2783573,23.2584044 Z M112.201817,13.1301659 L110.780763,13.1301659 L111.375022,9.71963662 L112.899425,9.71963662 L113.803732,6.10240858 L117.782683,6.10240858 L117.13675,9.71963662 L119.849671,9.71963662 L119.255412,13.1301659 L116.542491,13.1301659 L115.948232,16.4373458 C115.689858,17.9617491 115.689858,17.9617491 115.689858,18.2976345 C115.689858,19.4344776 116.154931,19.7703631 117.731008,19.7703631 L118.015219,19.7703631 L117.395123,23.2584044 L116.955888,23.2584044 C112.641052,23.2584044 111.29751,22.4316095 111.29751,19.7186884 C111.29751,18.7885441 111.452534,17.4450022 111.68507,15.998111 L112.201817,13.1301659 Z M130.546331,17.0832794 L129.461162,23.2584044 L124.862115,23.2584044 L128.11762,4.81054142 L134.034372,4.81054142 C136.38557,4.81054142 137.599925,5.04307751 138.607582,5.66317374 C139.718587,6.38661935 140.416196,7.7301612 140.416196,9.25456444 C140.416196,10.5205943 140.131985,12.0966722 139.69275,13.3368647 C139.253515,14.5770571 138.349208,15.6880629 137.238203,16.2823218 C136.127197,16.8765807 135.016191,17.0832794 132.897529,17.0832794 L130.546331,17.0832794 Z M131.114752,13.4143767 L133.07839,13.4143767 C133.982697,13.4143767 134.525282,13.2335153 134.887004,12.8201178 C135.377914,12.2258589 135.713799,11.0631785 135.713799,9.97801005 C135.713799,8.81532961 135.300402,8.4536068 133.931023,8.4536068 L131.993222,8.4536068 L131.114752,13.4143767 Z M148.167399,14.8612679 L148.219073,14.5770571 C148.270748,14.3186837 148.296585,14.0861476 148.296585,13.9311236 C148.296585,13.2335153 147.805676,12.8459551 146.849694,12.8459551 C145.945387,12.8459551 145.221942,13.2076779 144.343472,14.1378223 L141.708063,12.0708348 C143.025767,10.2622208 144.834381,9.4095885 147.263092,9.4095885 C149.149218,9.4095885 150.725296,9.87466068 151.681277,10.7014557 C152.327211,11.2698772 152.637259,12.0966722 152.637259,13.2335153 C152.637259,13.8794489 152.53391,14.7579185 152.327211,15.920599 L151.035344,23.2584044 L147.650652,23.2584044 L147.521465,22.6383082 C146.720507,23.2842418 145.8162,23.5684526 144.369309,23.5684526 C141.449689,23.5684526 140.002798,22.4057721 140.002798,20.0545739 C140.002798,18.3234719 140.493708,16.7990686 141.294665,15.9722737 C142.069786,15.171316 143.232466,14.8612679 145.42864,14.8612679 L148.167399,14.8612679 Z M147.676489,17.651701 L146.022899,17.651701 C145.376966,17.651701 145.015243,17.7550503 144.731032,18.0392611 C144.420984,18.3493092 144.214285,18.8918934 144.214285,19.460315 C144.214285,20.0804112 144.627683,20.3387847 145.609502,20.3387847 C146.849694,20.3387847 147.288929,19.8995498 147.547302,18.4268213 L147.676489,17.651701 Z M153.334867,20.5454834 L156.848746,18.7885441 C157.287981,19.7962005 158.011426,20.2354353 159.277456,20.2354353 C160.543486,20.2354353 161.344444,19.6928511 161.344444,18.8660561 C161.344444,18.4268213 161.034396,18.2459599 160.104251,18.1684478 C156.409511,17.9100744 155.065969,16.8765807 155.065969,14.3186837 C155.065969,11.2440399 157.210469,9.4095885 160.776022,9.4095885 C163.773154,9.4095885 165.581768,10.3655702 166.382726,12.4067203 L163.075546,14.111985 C162.610474,13.1818406 161.912865,12.7426058 160.853534,12.7426058 C159.897553,12.7426058 159.277456,13.2076779 159.277456,13.9052862 C159.277456,14.4478704 159.53583,14.5770571 160.905209,14.6804065 C164.289901,14.9904546 165.555931,16.0239483 165.555931,18.4526586 C165.555931,21.9406999 163.514781,23.5684526 159.14827,23.5684526 C155.815252,23.5684526 153.954964,22.6124709 153.334867,20.5454834 Z M166.641099,20.5454834 L170.154978,18.7885441 C170.594213,19.7962005 171.317658,20.2354353 172.583688,20.2354353 C173.849718,20.2354353 174.650675,19.6928511 174.650675,18.8660561 C174.650675,18.4268213 174.340627,18.2459599 173.410483,18.1684478 C169.715743,17.9100744 168.372201,16.8765807 168.372201,14.3186837 C168.372201,11.2440399 170.516701,9.4095885 174.082254,9.4095885 C177.079386,9.4095885 178.888,10.3655702 179.688957,12.4067203 L176.381777,14.111985 C175.916705,13.1818406 175.219097,12.7426058 174.159766,12.7426058 C173.203784,12.7426058 172.583688,13.2076779 172.583688,13.9052862 C172.583688,14.4478704 172.842061,14.5770571 174.211441,14.6804065 C177.596133,14.9904546 178.862162,16.0239483 178.862162,18.4526586 C178.862162,21.9406999 176.821012,23.5684526 172.454501,23.5684526 C169.121484,23.5684526 167.261195,22.6124709 166.641099,20.5454834 Z" id="path-4"></path>
    </defs>
    <g id="UI" stroke="none" stroke-width="1" fill="none" fill-rule="evenodd">
        <g id="時間選択" transform="translate(-93.000000, -25.000000)">
            <g id="Group-2" transform="translate(102.000000, 32.000000)">
                <g id="Group" transform="translate(0.096810, 0.353595)">
                    <path d="M25.8240189,22.8541771 L23.9769658,31.0755823 L16.1489785,31.0755823 L21.690138,6.51456439 L31.7609756,6.51456439 C35.7629241,6.51456439 37.8298646,6.82415705 39.5449854,7.64973748 C41.4360161,8.61291465 42.6234074,10.4016723 42.6234074,12.4312242 C42.6234074,14.1167842 42.1396554,16.2151345 41.3920386,17.8662953 C40.6444218,19.5174562 39.1052108,20.9966212 37.2141802,21.7878024 C35.3231496,22.5789837 33.4321189,22.8541771 29.8259675,22.8541771 L25.8240189,22.8541771 Z M26.791523,17.9694929 L30.1338097,17.9694929 C31.6730207,17.9694929 32.5965473,17.7286986 33.2122317,17.1783117 C34.0478033,16.3871304 34.6195103,14.8391671 34.6195103,13.3944013 C34.6195103,11.846438 33.915871,11.3648494 31.5850658,11.3648494 L28.2867565,11.3648494 L26.791523,17.9694929 Z" id="P" fill-opacity="0.7" fill="#FFFFFF"></path>
                    <g id="N">
                        <use fill="black" fill-opacity="1" filter="url(#filter-2)" xlink:href="#path-1"></use>
                        <use fill="#FFFFFF" fill-rule="evenodd" xlink:href="#path-1"></use>
                    </g>
                </g>
                <g id="Night-Pass">
                    <use fill="url(#linearGradient-3)" xlink:href="#path-4"></use>
                    <use fill="#FFFFFF" xlink:href="#path-4"></use>
                </g>
            </g>
        </g>
    </g>
</svg>